<svg width="44" height="74" viewBox="0 0 44 74" fill="none" xmlns="http://www.w3.org/2000/svg">
<path d="M32.1628 43.3116C33.427 40.3782 34.265 37.2443 34.6381 34.0589C35.0402 34.0333 35.4427 33.9863 35.8439 33.9149C38.272 33.484 40.6372 32.154 42.1911 30.129C43.7449 28.1035 44.4105 25.3793 43.7401 23.0499C40.0396 23.9185 36.5588 25.4995 34.8388 29.0974C34.7208 25.9036 34.1192 22.7354 32.9948 19.7415C33.4545 19.4857 33.8985 19.1963 34.3224 18.8719C36.286 17.3704 37.7855 15.0986 38.2478 12.5821C38.7099 10.0653 38.0648 7.33606 36.4108 5.57326C33.264 8.2639 30.7295 11.5828 31.3249 16.1078C30.2422 14.0877 29.005 12.1605 27.6689 10.3002C27.387 9.91391 27.1009 9.52958 26.8096 9.14888C26.7673 8.78689 26.7074 8.42555 26.6283 8.06591C26.0972 5.64147 24.6765 3.31891 22.601 1.84199C20.5251 0.36528 18.3997 -0.329188 15.9292 0.150504C15.354 3.25712 18.5011 10.0782 26.0595 10.2014C26.7898 11.1956 27.4808 12.2199 28.1437 13.2567C28.191 13.3316 28.2381 13.4067 28.285 13.4818C25.4627 11.1145 21.8459 10.9353 18.2714 11.4266C18.4702 13.8433 20.0568 16.1495 22.2258 17.4837C24.3944 18.8177 27.0751 19.2106 29.4961 18.7412C29.9931 18.6449 30.4786 18.5135 30.9514 18.3516C32.4476 21.6703 33.2215 25.1606 33.363 28.6637C32.2372 24.2305 28.6479 22.1054 24.7235 20.7959C23.8461 23.0541 24.2631 25.8281 25.6279 27.9873C26.9924 30.1462 29.2279 31.6869 31.6069 32.3382C32.1517 32.4875 32.7026 32.5913 33.2555 32.6541C32.9373 36.0622 32.0491 39.425 30.6745 42.5947C31.6112 37.7325 28.9829 34.2277 25.6841 31.4121C24.0321 33.1763 23.3893 35.9063 23.8536 38.4226C24.3179 40.9387 25.8196 43.2092 27.7844 44.7089C28.2308 45.0497 28.6991 45.3513 29.1846 45.6162C27.8585 48.005 26.2471 50.244 24.3913 52.2604C23.9484 52.753 23.4933 53.2339 23.0267 53.7029C25.5489 49.3212 24.1321 45.1084 21.8435 41.3506C19.727 42.507 18.2698 44.8983 17.9306 47.4349C17.5914 49.9712 18.3138 52.6003 19.7155 54.6429C20.0137 55.0777 20.341 55.4861 20.6927 55.8684C19.9944 56.4672 19.2765 57.043 18.5398 57.5943C17.093 58.6796 15.5685 59.6975 14.0231 60.7037C17.6286 55.8475 16.2576 50.9945 13.8192 46.6509C11.524 47.801 9.88357 50.2896 9.4273 52.9754C8.97103 55.6608 9.64089 58.4861 11.0553 60.7126C11.3454 61.1693 11.6654 61.601 12.0104 62.0077C7.60816 64.862 3.23772 67.8169 0.199877 72.1463C-0.159789 72.6588 -0.0204057 73.3699 0.508265 73.7023L0.82345 73.9004C1.12483 74.0899 1.51996 74.0009 1.71572 73.7022C4.451 69.5301 8.64098 66.6086 12.7513 63.8671C13.1318 64.4168 13.5594 64.9378 14.0349 65.4214C15.8812 67.3 18.4712 68.5786 21.1729 68.72C23.875 68.8615 26.6461 67.7963 28.2643 65.794C24.6578 62.5045 20.3493 60.1187 14.9902 62.3789C16.571 61.3243 18.1496 60.2465 19.6581 59.0886C20.4096 58.5131 21.143 57.912 21.856 57.2872C22.2209 57.6234 22.6092 57.9373 23.0217 58.2242C25.0499 59.6356 27.6607 60.3631 30.1792 60.0216C32.698 59.6801 35.0726 58.2125 36.2209 56.0811C32.732 53.9263 28.8481 52.5389 24.8013 54.4437C27.0447 52.0554 29.0053 49.4003 30.5889 46.5255C31.055 46.7398 31.5377 46.9233 32.0359 47.0713C34.4004 47.7742 37.1063 47.6443 39.3928 46.5279C41.6798 45.4113 43.4805 43.2704 43.9104 40.8845C39.7664 39.8966 35.4736 39.8321 32.1628 43.3116Z" fill="#327AE7"/>
</svg>
