<svg width="45" height="75" viewBox="0 0 45 75" fill="none" xmlns="http://www.w3.org/2000/svg">
<path d="M32.3552 62.2772C32.704 61.8685 33.0277 61.4351 33.3211 60.9764C34.7516 58.7403 35.4292 55.9025 34.9677 53.2056C34.5061 50.5081 32.847 48.0087 30.5257 46.8536C28.0594 51.2161 26.6727 56.0901 30.3194 60.9675C28.7565 59.9569 27.2144 58.9346 25.7512 57.8446C25.006 57.2908 24.2798 56.7125 23.5737 56.1112C23.9294 55.7272 24.2604 55.317 24.562 54.8804C25.9795 52.8289 26.7102 50.1883 26.3673 47.641C26.0242 45.0934 24.5503 42.6917 22.4096 41.5303C20.0949 45.3044 18.6619 49.5355 21.213 53.9362C20.741 53.4652 20.2807 52.9822 19.8327 52.4875C17.9556 50.4623 16.326 48.2135 14.9847 45.8144C15.4756 45.5485 15.9494 45.2455 16.4009 44.9032C18.3881 43.3971 19.9069 41.1166 20.3766 38.5896C20.8463 36.0623 20.1961 33.3204 18.5251 31.5486C15.1887 34.3763 12.5304 37.8965 13.4777 42.7798C12.0875 39.5962 11.1891 36.2188 10.8673 32.796C11.4265 32.733 11.9837 32.6286 12.5347 32.4787C14.9409 31.8246 17.202 30.2772 18.5821 28.1089C19.9624 25.9403 20.3842 23.1543 19.4968 20.8863C15.5275 22.2014 11.8972 24.3358 10.7585 28.7883C10.9018 25.2699 11.6844 21.7644 13.1977 18.4313C13.6758 18.594 14.1668 18.7259 14.6696 18.8227C17.1183 19.294 19.8295 18.8994 22.023 17.5597C24.2167 16.2197 25.8215 13.9034 26.0226 11.4763C22.4073 10.9828 18.7491 11.1628 15.8945 13.5404C15.9421 13.4649 15.9897 13.3894 16.0375 13.3143C16.708 12.2729 17.4069 11.2443 18.1455 10.2457C25.7902 10.1219 28.9733 3.27127 28.3915 0.151158C25.8928 -0.330619 23.7431 0.366867 21.6435 1.84999C19.5443 3.33333 18.1074 5.66599 17.5702 8.10096C17.4903 8.46216 17.4296 8.82508 17.3868 9.18864C17.0922 9.57099 16.8028 9.95688 16.5177 10.3449C15.1663 12.2134 13.915 14.1489 12.8199 16.1778C13.4221 11.6332 10.8586 8.29981 7.67588 5.59748C6.00302 7.36794 5.35053 10.109 5.81792 12.6368C6.28552 15.1642 7.80215 17.446 9.7882 18.9539C10.2169 19.2798 10.6661 19.5704 11.131 19.8272C9.99371 22.8342 9.38513 26.0161 9.26583 29.2239C7.5262 25.6103 4.00559 24.0225 0.262825 23.1501C-0.415228 25.4895 0.257993 28.2256 1.82959 30.2599C3.40119 32.2938 5.79343 33.6293 8.24924 34.0623C8.65511 34.1341 9.06215 34.1812 9.46888 34.2069C9.84629 37.4061 10.6939 40.5536 11.9725 43.4998C8.62397 40.0051 4.28207 40.0698 0.0904936 41.0626C0.525349 43.4589 2.3467 45.6091 4.6597 46.7305C6.97238 47.8519 9.70917 47.9824 12.1007 47.2763C12.6047 47.1276 13.0929 46.9433 13.5642 46.7281C15.1659 49.6153 17.1489 52.2821 19.4179 54.6808C15.325 52.7675 11.3966 54.161 7.86786 56.3253C9.0293 58.4659 11.431 59.9398 13.9786 60.2829C16.5259 60.6259 19.1665 59.8953 21.2179 58.4776C21.6351 58.1894 22.0278 57.8742 22.3969 57.5365C23.1181 58.1641 23.8598 58.7676 24.6199 59.3458C26.1457 60.5087 27.7423 61.5911 29.3411 62.6504C23.9208 60.3803 19.563 62.7766 15.9154 66.0803C17.552 68.0914 20.3549 69.1611 23.0878 69.0191C25.8203 68.877 28.44 67.5928 30.3074 65.7061C30.7883 65.2204 31.2208 64.6971 31.6056 64.145C35.7629 66.8985 40.0008 69.8325 42.7673 74.0229C42.9653 74.3228 43.365 74.4122 43.6698 74.222L43.9886 74.023C44.5233 73.6892 44.6643 72.9751 44.3005 72.4602C41.228 68.1116 36.8077 65.1437 32.3552 62.2772Z" fill="#327AE7"/>
</svg>
