<svg width="20" height="20" viewBox="0 0 20 20" fill="none" xmlns="http://www.w3.org/2000/svg">
<g clip-path="url(#clip0_1091_30121)">
<path fill-rule="evenodd" clip-rule="evenodd" d="M11.1527 1.44082C11.3897 1.69891 11.7919 1.74645 12.0864 1.54949C12.661 1.16236 13.4079 1.74645 13.1134 2.34412L11.3754 4.22542H8.5959L6.84347 2.32374C6.549 1.71928 7.29594 1.13519 7.87051 1.52232L7.92078 1.55628C8.21525 1.75324 8.61744 1.69891 8.84727 1.44082L9.47211 0.734481C9.53647 0.661116 9.61715 0.602068 9.70839 0.56154C9.79963 0.521012 9.89919 0.5 10 0.5C10.1008 0.5 10.2004 0.521012 10.2916 0.56154C10.3828 0.602068 10.4635 0.661116 10.5279 0.734481L11.1527 1.44082ZM1.5 13.5572C1.5 9.11546 5.3065 5.51585 10.0036 5.51585C14.7007 5.51585 18.5072 9.11546 18.5 13.5572C18.5 16.8376 15.6846 19.5 12.2157 19.5H7.78432C4.31538 19.5 1.5 16.8376 1.5 13.5572Z" fill="#F3C07B"/>
<path fill-rule="evenodd" clip-rule="evenodd" d="M8.77377 4.21167H11.2444C11.6825 4.21167 12.0416 4.55126 12.0416 4.96555C12.0416 5.37985 11.6825 5.71943 11.2444 5.71943H8.77377C8.33567 5.71943 7.97656 5.37985 7.97656 4.96555C7.97656 4.55126 8.33567 4.21167 8.77377 4.21167ZM10.0091 12.2802H10.0594C11.1367 12.3074 11.9985 13.136 11.9985 14.1547C11.9985 15.0241 11.3737 15.7508 10.5262 15.9681V16.7288C10.5262 17.0005 10.2964 17.2178 10.0091 17.2178C9.72181 17.2178 9.49198 17.0005 9.49198 16.7288V15.9681C9.07004 15.8607 8.69722 15.6249 8.43112 15.2972C8.16501 14.9694 8.02041 14.568 8.01965 14.1547C8.01965 13.8831 8.24948 13.6657 8.53676 13.6657C8.82405 13.6657 9.05387 13.8831 9.05387 14.1547C9.05387 14.6573 9.47762 15.058 10.0019 15.058C10.5262 15.058 10.9571 14.6505 10.9571 14.1547C10.9571 13.659 10.5262 13.2514 10.0019 13.2514H9.95164C9.43497 13.2382 8.94412 13.035 8.58338 12.6849C8.22263 12.3349 8.0204 11.8657 8.01965 11.3769C8.01965 10.5076 8.6445 9.78088 9.49198 9.56354V8.80287C9.49198 8.5312 9.72181 8.31387 10.0091 8.31387C10.2964 8.31387 10.5262 8.5312 10.5262 8.80287V9.56354C11.3737 9.78088 11.9985 10.5076 11.9985 11.3769C11.9985 11.6486 11.7687 11.8659 11.4814 11.8659C11.1941 11.8659 10.9643 11.6486 10.9643 11.3769C10.9643 10.8811 10.5334 10.4736 10.0091 10.4736C9.4848 10.4736 9.05387 10.8811 9.05387 11.3769C9.05387 11.8727 9.4848 12.2802 10.0091 12.2802Z" fill="#8C5543"/>
</g>
<defs>
<clipPath id="clip0_1091_30121">
<rect width="20" height="20" fill="white"/>
</clipPath>
</defs>
</svg>
