<svg width="20" height="20" viewBox="0 0 20 20" fill="none" xmlns="http://www.w3.org/2000/svg">
<g clip-path="url(#clip0_1091_30110)">
<path d="M16.0222 9.79861C15.4739 10.3786 15.115 11.5025 15.2234 12.2947L15.7189 15.8731C15.8284 16.6658 15.3295 17.0325 14.61 16.6892L11.3595 15.1358C10.64 14.7914 9.46614 14.7964 8.74836 15.1458L5.51169 16.7247C4.79447 17.0742 4.29336 16.7103 4.39669 15.9181L4.86502 12.3353C4.96836 11.5425 4.60113 10.4219 4.04836 9.84584L1.55169 7.24139C0.998357 6.66528 1.1878 6.07361 1.97113 5.9275L5.51002 5.2675C6.29336 5.12139 7.24113 4.42417 7.61725 3.71806L9.31225 0.530836C9.68725 -0.175275 10.3061 -0.176941 10.6861 0.525836L12.4056 3.69972C12.7867 4.4025 13.7389 5.0925 14.5245 5.23195L18.0678 5.86584C18.8522 6.00584 19.0461 6.59584 18.4978 7.17639L16.0222 9.79861Z" fill="#FFCC50"/>
<path d="M5.43514 1.21157C6.00347 1.99657 6.79403 3.94323 6.38903 4.23768C5.98459 4.53268 4.38514 3.17657 3.81681 2.39157C3.24847 1.60657 3.29736 0.909345 3.74403 0.58379C4.1907 0.257679 4.86625 0.427123 5.43514 1.21157ZM16.184 2.39157C15.6163 3.17657 14.0168 4.53323 13.6113 4.23712C13.2063 3.94268 13.9974 1.99657 14.5663 1.21212C15.1346 0.426568 15.8096 0.257123 16.2568 0.58379C16.7029 0.909345 16.7513 1.60657 16.184 2.39157ZM9.23625 18.4949C9.2357 17.5249 9.73514 15.4832 10.2368 15.4832C10.7351 15.4832 11.2357 17.5249 11.2351 18.4943C11.2351 19.4649 10.7885 20.001 10.2351 19.9999C9.68292 20.001 9.23625 19.4655 9.23625 18.4949ZM18.2246 13.3493C17.3051 13.0499 15.5257 11.9421 15.6807 11.4632C15.8346 10.9866 17.9235 11.1405 18.8418 11.4405C19.7613 11.7405 20.1313 12.3321 19.9601 12.8605C19.789 13.3882 19.144 13.6493 18.2246 13.3493ZM1.15736 11.441C2.07681 11.141 4.16514 10.9871 4.3207 11.4655C4.47403 11.9416 2.69403 13.051 1.7757 13.3499C0.856807 13.6499 0.21014 13.3888 0.0406959 12.861C-0.130415 12.3332 0.237363 11.7416 1.15736 11.441Z" fill="#FFD77C"/>
</g>
<defs>
<clipPath id="clip0_1091_30110">
<rect width="20" height="20" fill="white"/>
</clipPath>
</defs>
</svg>
