<svg width="36" height="36" viewBox="0 0 36 36" fill="none" xmlns="http://www.w3.org/2000/svg">
<path d="M12.166 13C12.166 13.3315 12.0343 13.6495 11.7999 13.8839C11.5655 14.1183 11.2475 14.25 10.916 14.25C10.5845 14.25 10.2666 14.1183 10.0321 13.8839C9.79771 13.6495 9.66602 13.3315 9.66602 13C9.66602 12.6685 9.79771 12.3505 10.0321 12.1161C10.2666 11.8817 10.5845 11.75 10.916 11.75C11.2475 11.75 11.5655 11.8817 11.7999 12.1161C12.0343 12.3505 12.166 12.6685 12.166 13ZM12.166 18C12.166 18.3315 12.0343 18.6495 11.7999 18.8839C11.5655 19.1183 11.2475 19.25 10.916 19.25C10.5845 19.25 10.2666 19.1183 10.0321 18.8839C9.79771 18.6495 9.66602 18.3315 9.66602 18C9.66602 17.6685 9.79771 17.3505 10.0321 17.1161C10.2666 16.8817 10.5845 16.75 10.916 16.75C11.2475 16.75 11.5655 16.8817 11.7999 17.1161C12.0343 17.3505 12.166 17.6685 12.166 18ZM12.166 23C12.166 23.3315 12.0343 23.6495 11.7999 23.8839C11.5655 24.1183 11.2475 24.25 10.916 24.25C10.5845 24.25 10.2666 24.1183 10.0321 23.8839C9.79771 23.6495 9.66602 23.3315 9.66602 23C9.66602 22.6685 9.79771 22.3505 10.0321 22.1161C10.2666 21.8817 10.5845 21.75 10.916 21.75C11.2475 21.75 11.5655 21.8817 11.7999 22.1161C12.0343 22.3505 12.166 22.6685 12.166 23Z" fill="#848484"/>
<path fill-rule="evenodd" clip-rule="evenodd" d="M13 12.9993C13 12.7783 13.0878 12.5664 13.2441 12.4101C13.4004 12.2538 13.6123 12.166 13.8333 12.166H25.5C25.721 12.166 25.933 12.2538 26.0893 12.4101C26.2455 12.5664 26.3333 12.7783 26.3333 12.9993C26.3333 13.2204 26.2455 13.4323 26.0893 13.5886C25.933 13.7449 25.721 13.8327 25.5 13.8327H13.8333C13.6123 13.8327 13.4004 13.7449 13.2441 13.5886C13.0878 13.4323 13 13.2204 13 12.9993ZM13 17.9993C13 17.7783 13.0878 17.5664 13.2441 17.4101C13.4004 17.2538 13.6123 17.166 13.8333 17.166H25.5C25.721 17.166 25.933 17.2538 26.0893 17.4101C26.2455 17.5664 26.3333 17.7783 26.3333 17.9993C26.3333 18.2204 26.2455 18.4323 26.0893 18.5886C25.933 18.7449 25.721 18.8327 25.5 18.8327H13.8333C13.6123 18.8327 13.4004 18.7449 13.2441 18.5886C13.0878 18.4323 13 18.2204 13 17.9993ZM13 22.9993C13 22.7783 13.0878 22.5664 13.2441 22.4101C13.4004 22.2538 13.6123 22.166 13.8333 22.166H25.5C25.721 22.166 25.933 22.2538 26.0893 22.4101C26.2455 22.5664 26.3333 22.7783 26.3333 22.9993C26.3333 23.2204 26.2455 23.4323 26.0893 23.5886C25.933 23.7449 25.721 23.8327 25.5 23.8327H13.8333C13.6123 23.8327 13.4004 23.7449 13.2441 23.5886C13.0878 23.4323 13 23.2204 13 22.9993Z" fill="#848484"/>
</svg>
