<svg width="44" height="44" viewBox="0 0 44 44" fill="none" xmlns="http://www.w3.org/2000/svg">
<path d="M18.7954 21.9999L27.2874 13.2729C27.3574 13.2026 27.4126 13.1191 27.4501 13.0273C27.4875 12.9354 27.5063 12.8371 27.5055 12.7379C27.5047 12.6387 27.4842 12.5407 27.4453 12.4495C27.4063 12.3583 27.3497 12.2758 27.2786 12.2066C27.2075 12.1375 27.1234 12.0831 27.0312 12.0466C26.939 12.0102 26.8404 11.9924 26.7413 11.9943C26.6421 11.9962 26.5443 12.0177 26.4536 12.0576C26.3628 12.0976 26.2808 12.1551 26.2124 12.2269L17.2124 21.4769C17.0762 21.6169 17 21.8046 17 21.9999C17 22.1953 17.0762 22.3829 17.2124 22.5229L26.2124 31.7729C26.2808 31.8447 26.3628 31.9023 26.4536 31.9422C26.5443 31.9821 26.6421 32.0037 26.7413 32.0055C26.8404 32.0074 26.939 31.9896 27.0312 31.9532C27.1234 31.9167 27.2075 31.8624 27.2786 31.7932C27.3497 31.7241 27.4063 31.6415 27.4453 31.5503C27.4842 31.4591 27.5047 31.3611 27.5055 31.2619C27.5063 31.1627 27.4875 31.0644 27.4501 30.9726C27.4126 30.8807 27.3574 30.7972 27.2874 30.7269L18.7954 21.9999Z" fill="#8A8A8A"/>
</svg>
