<svg width="44" height="44" viewBox="0 0 44 44" fill="none" xmlns="http://www.w3.org/2000/svg">
<rect width="44" height="44" rx="22" transform="matrix(-1 0 0 1 44 0)" fill="#327AE7"/>
<path fill-rule="evenodd" clip-rule="evenodd" d="M17.7171 12.9908C19.6546 12.0543 21.8425 11.7718 23.9534 12.1856C26.0644 12.5994 27.9849 13.6872 29.4277 15.2863C30.8704 16.8854 31.7577 18.9098 31.9568 21.0565C32.156 23.2033 31.6563 25.3569 30.5324 27.1952L31.9543 30.9914C31.9987 31.11 32.0111 31.2384 31.99 31.3633C31.9689 31.4883 31.9152 31.6054 31.8343 31.7028C31.7535 31.8002 31.6483 31.8744 31.5295 31.9178C31.4108 31.9613 31.2826 31.9724 31.1582 31.9501L26.1953 31.0502C23.806 32.1772 21.068 32.3066 18.5836 31.41C17.3534 30.9661 16.2225 30.2836 15.2555 29.4016C14.2885 28.5196 13.5042 27.4553 12.9475 26.2695C12.3908 25.0837 12.0726 23.7996 12.0111 22.4905C11.9495 21.1815 12.1457 19.8731 12.5886 18.64C13.0315 17.407 13.7124 16.2734 14.5923 15.3041C15.4723 14.3348 16.5341 13.5488 17.7171 12.9908Z" fill="white"/>
<path fill-rule="evenodd" clip-rule="evenodd" d="M22.2945 18.4977C22.1065 18.4626 21.9125 18.4669 21.7265 18.5103C21.5405 18.5536 21.3672 18.635 21.2189 18.7484C21.0707 18.8618 20.9513 19.0045 20.8693 19.1662C20.7874 19.3278 20.7449 19.5045 20.7449 19.6833C20.7449 19.8847 20.6592 20.0778 20.5065 20.2202C20.3539 20.3626 20.1469 20.4426 19.9311 20.4426C19.7152 20.4426 19.5082 20.3626 19.3556 20.2202C19.2029 20.0778 19.1172 19.8847 19.1172 19.6833C19.1174 19.1767 19.2688 18.6801 19.5546 18.2493C19.8403 17.8185 20.2491 17.4704 20.735 17.2441C21.2209 17.0179 21.7647 16.9223 22.3056 16.9683C22.8464 17.0142 23.3629 17.1997 23.797 17.5041C24.2311 17.8085 24.5658 18.2197 24.7635 18.6916C24.9612 19.1634 25.014 19.6773 24.9162 20.1757C24.8183 20.674 24.5736 21.1371 24.2094 21.5129C23.8453 21.8888 23.3761 22.1626 22.8545 22.3036V22.9645C22.8545 23.1658 22.7687 23.3589 22.6161 23.5013C22.4635 23.6437 22.2565 23.7237 22.0406 23.7237C21.8248 23.7237 21.6177 23.6437 21.4651 23.5013C21.3125 23.3589 21.2267 23.1658 21.2267 22.9645V21.6525C21.2267 21.2322 21.5914 20.8932 22.0419 20.8932C22.3649 20.895 22.6768 20.7841 22.9167 20.5824C23.1566 20.3807 23.3071 20.1027 23.3388 19.8029C23.3704 19.5031 23.2808 19.203 23.0877 18.9616C22.8945 18.7201 22.6116 18.5547 22.2945 18.4977ZM22.0419 27.0036C21.7328 27.0033 21.4365 26.8885 21.2182 26.6843C20.9999 26.4802 20.8774 26.2035 20.8777 25.9152C20.8781 25.6268 21.0012 25.3504 21.22 25.1467C21.4388 24.9431 21.7354 24.8288 22.0445 24.8292H22.0471C22.3562 24.8295 22.6525 24.9443 22.8708 25.1485C23.0892 25.3526 23.2116 25.6293 23.2113 25.9176C23.2109 26.206 23.0878 26.4824 22.869 26.686C22.6502 26.8897 22.3536 27.004 22.0445 27.0036H22.0419Z" fill="#327AE7"/>
</svg>
