<svg width="16" height="16" viewBox="0 0 16 16" fill="none" xmlns="http://www.w3.org/2000/svg">
<path d="M14.0001 14.0001L11.1048 11.1048M11.1048 11.1048C11.6001 10.6095 11.9929 10.0216 12.261 9.3745C12.529 8.72742 12.6669 8.03387 12.6669 7.33347C12.6669 6.63307 12.529 5.93953 12.261 5.29244C11.9929 4.64535 11.6001 4.0574 11.1048 3.56214C10.6095 3.06688 10.0216 2.67402 9.3745 2.40599C8.72742 2.13795 8.03387 2 7.33347 2C6.63307 2 5.93953 2.13795 5.29244 2.40599C4.64535 2.67402 4.0574 3.06688 3.56214 3.56214C2.56192 4.56236 2 5.91895 2 7.33347C2 8.748 2.56192 10.1046 3.56214 11.1048C4.56236 12.105 5.91895 12.6669 7.33347 12.6669C8.748 12.6669 10.1046 12.105 11.1048 11.1048Z" stroke="#327AE7" stroke-width="1.5" stroke-linecap="round" stroke-linejoin="round"/>
</svg>
