<svg width="36" height="36" viewBox="0 0 36 36" fill="none" xmlns="http://www.w3.org/2000/svg">
<path d="M17.9993 22.166C18.2355 22.166 18.4335 22.086 18.5935 21.926C18.7535 21.766 18.8332 21.5682 18.8327 21.3327V17.9993C18.8327 17.7632 18.7527 17.5655 18.5927 17.406C18.4327 17.2466 18.2349 17.1666 17.9993 17.166C17.7638 17.1655 17.566 17.2455 17.406 17.406C17.246 17.5666 17.166 17.7643 17.166 17.9993V21.3327C17.166 21.5688 17.246 21.7668 17.406 21.9268C17.566 22.0868 17.7638 22.1666 17.9993 22.166ZM17.9993 15.4993C18.2355 15.4993 18.4335 15.4193 18.5935 15.2593C18.7535 15.0993 18.8332 14.9016 18.8327 14.666C18.8321 14.4305 18.7521 14.2327 18.5927 14.0727C18.4332 13.9127 18.2355 13.8327 17.9993 13.8327C17.7632 13.8327 17.5655 13.9127 17.406 14.0727C17.2466 14.2327 17.1666 14.4305 17.166 14.666C17.1655 14.9016 17.2455 15.0996 17.406 15.2602C17.5666 15.4207 17.7643 15.5005 17.9993 15.4993ZM17.9993 26.3327C16.8466 26.3327 15.7632 26.1138 14.7494 25.676C13.7355 25.2382 12.8535 24.6446 12.1035 23.8952C11.3535 23.1457 10.7599 22.2638 10.3227 21.2493C9.88546 20.2349 9.66657 19.1516 9.66602 17.9993C9.66546 16.8471 9.88435 15.7638 10.3227 14.7493C10.761 13.7349 11.3546 12.853 12.1035 12.1035C12.8524 11.3541 13.7344 10.7605 14.7494 10.3227C15.7644 9.8849 16.8477 9.66602 17.9993 9.66602C19.151 9.66602 20.2343 9.8849 21.2493 10.3227C22.2643 10.7605 23.1463 11.3541 23.8952 12.1035C24.6441 12.853 25.238 13.7349 25.6768 14.7493C26.1157 15.7638 26.3344 16.8471 26.3327 17.9993C26.331 19.1516 26.1121 20.2349 25.676 21.2493C25.2399 22.2638 24.6463 23.1457 23.8952 23.8952C23.1441 24.6446 22.2621 25.2385 21.2493 25.6768C20.2366 26.1152 19.1532 26.3338 17.9993 26.3327Z" fill="#BDBDBD"/>
</svg>
