<svg width="44" height="44" viewBox="0 0 44 44" fill="none" xmlns="http://www.w3.org/2000/svg">
<path fill-rule="evenodd" clip-rule="evenodd" d="M12.3348 17.875C11.7948 19.002 11.9848 20.321 12.3648 22.958L12.6428 24.895C13.1298 28.283 13.3738 29.976 14.5488 30.988C15.7238 32 17.4468 32 20.8938 32H23.1058C26.5528 32 28.2758 32 29.4508 30.988C30.6258 29.976 30.8698 28.283 31.3568 24.895L31.6358 22.958C32.0158 20.321 32.2058 19.002 31.6648 17.875C31.1238 16.748 29.9738 16.062 27.6728 14.692L26.2878 13.867C24.1998 12.622 23.1538 12 21.9998 12C20.8458 12 19.8008 12.622 17.7118 13.867L16.3268 14.692C14.0268 16.062 12.8758 16.748 12.3348 17.875ZM18.2498 28C18.2498 27.8011 18.3288 27.6103 18.4695 27.4697C18.6101 27.329 18.8009 27.25 18.9998 27.25H24.9998C25.1987 27.25 25.3895 27.329 25.5302 27.4697C25.6708 27.6103 25.7498 27.8011 25.7498 28C25.7498 28.1989 25.6708 28.3897 25.5302 28.5303C25.3895 28.671 25.1987 28.75 24.9998 28.75H18.9998C18.8009 28.75 18.6101 28.671 18.4695 28.5303C18.3288 28.3897 18.2498 28.1989 18.2498 28Z" fill="#8A8A8A"/>
</svg>
