<svg width="16" height="16" viewBox="0 0 16 16" fill="none" xmlns="http://www.w3.org/2000/svg">
<path d="M13.3327 13.3337V10.0004H9.99935M2.66602 2.66705V6.00038H5.99935M13.2913 7.33371C13.1518 6.22532 12.6678 5.18871 11.9075 4.37014C11.1473 3.55157 10.1492 2.99236 9.05414 2.7714C7.95906 2.55043 6.82224 2.67888 5.80407 3.13861C4.7859 3.59834 3.93778 4.36615 3.37935 5.33371M2.70735 8.66705C2.8469 9.77545 3.33094 10.8121 4.09118 11.6306C4.85142 12.4492 5.84948 13.0084 6.94456 13.2294C8.03964 13.4503 9.17645 13.3219 10.1946 12.8621C11.2128 12.4024 12.0609 11.6346 12.6193 10.667" stroke="#D91E1D" stroke-width="1.3" stroke-linecap="round" stroke-linejoin="round"/>
</svg>
