<svg width="24" height="24" viewBox="0 0 24 24" fill="none" xmlns="http://www.w3.org/2000/svg">
<path d="M9.15421 5.40751C10.4212 3.13551 11.0542 1.99951 12.0012 1.99951C12.9482 1.99951 13.5812 3.13551 14.8482 5.40751L15.1762 5.99551C15.5362 6.64151 15.7162 6.96451 15.9962 7.17751C16.2762 7.39051 16.6262 7.46951 17.3262 7.62751L17.9622 7.77151C20.4222 8.32851 21.6512 8.60651 21.9442 9.54751C22.2362 10.4875 21.3982 11.4685 19.7212 13.4295L19.2872 13.9365C18.8112 14.4935 18.5722 14.7725 18.4652 15.1165C18.3582 15.4615 18.3942 15.8335 18.4662 16.5765L18.5322 17.2535C18.7852 19.8705 18.9122 21.1785 18.1462 21.7595C17.3802 22.3405 16.2282 21.8105 13.9262 20.7505L13.3292 20.4765C12.6752 20.1745 12.3482 20.0245 12.0012 20.0245C11.6542 20.0245 11.3272 20.1745 10.6732 20.4765L10.0772 20.7505C7.77421 21.8105 6.62221 22.3405 5.85721 21.7605C5.09021 21.1785 5.21721 19.8705 5.47021 17.2535L5.53621 16.5775C5.60821 15.8335 5.64421 15.4615 5.53621 15.1175C5.43021 14.7725 5.19121 14.4935 4.71521 13.9375L4.28121 13.4295C2.60421 11.4695 1.76621 10.4885 2.05821 9.54751C2.35021 8.60651 3.58121 8.32751 6.04121 7.77151L6.67721 7.62751C7.37621 7.46951 7.72521 7.39051 8.00621 7.17751C8.28721 6.96451 8.46621 6.64151 8.82621 5.99551L9.15421 5.40751Z" fill="#FFCC50"/>
</svg>
