<svg width="56" height="56" viewBox="0 0 56 56" fill="none" xmlns="http://www.w3.org/2000/svg">
<rect width="56" height="56" rx="16" fill="#F6F6F6"/>
<path d="M21 26.8335C21 23.5342 21 21.8833 22.0255 20.859C23.0498 19.8335 24.7007 19.8335 28 19.8335H31.5C34.7993 19.8335 36.4502 19.8335 37.4745 20.859C38.5 21.8833 38.5 23.5342 38.5 26.8335V32.6668C38.5 35.9662 38.5 37.617 37.4745 38.6413C36.4502 39.6668 34.7993 39.6668 31.5 39.6668H28C24.7007 39.6668 23.0498 39.6668 22.0255 38.6413C21 37.617 21 35.9662 21 32.6668V26.8335Z" stroke="#8A8A8A" stroke-width="1.5"/>
<path d="M21 36.1668C20.0717 36.1668 19.1815 35.7981 18.5251 35.1417C17.8687 34.4853 17.5 33.5951 17.5 32.6668V25.6668C17.5 21.2673 17.5 19.067 18.8673 17.7008C20.2347 16.3347 22.4338 16.3335 26.8333 16.3335H31.5C32.4283 16.3335 33.3185 16.7022 33.9749 17.3586C34.6313 18.015 35 18.9052 35 19.8335" stroke="#8A8A8A" stroke-width="1.5"/>
</svg>
