<svg width="32" height="32" viewBox="0 0 32 32" fill="none" xmlns="http://www.w3.org/2000/svg">
<path d="M21.3327 21.3337V18.0004H17.9993M10.666 10.667V14.0004H13.9993M21.2913 15.3337C21.1518 14.2253 20.6678 13.1887 19.9075 12.3701C19.1473 11.5516 18.1492 10.9924 17.0541 10.7714C15.9591 10.5504 14.8222 10.6789 13.8041 11.1386C12.7859 11.5983 11.9378 12.3662 11.3793 13.3337M10.7073 16.667C10.8469 17.7754 11.3309 18.8121 12.0912 19.6306C12.8514 20.4492 13.8495 21.0084 14.9446 21.2294C16.0396 21.4503 17.1765 21.3219 18.1946 20.8621C19.2128 20.4024 20.0609 19.6346 20.6193 18.667" stroke="#999999" stroke-width="1.3" stroke-linecap="round" stroke-linejoin="round"/>
</svg>
